HIERARCHY
ROOT Hips
{
	OFFSET	0.00	0.00	0.00
	CHANNELS 6 Xposition Yposition Zposition Zrotation Xrotation Yrotation
	JOINT LeftUpLeg
	{
		OFFSET	 0.126116	-0.014019	-0.065224
		CHANNELS 3 Zrotation Xrotation Yrotation
		JOINT LeftLeg
		{
			OFFSET	 0.000000	 0.000000	 0.569914
			CHANNELS 3 Zrotation Xrotation Yrotation
			JOINT LeftFoot
			{
				OFFSET	 0.000000	 0.000000	 0.544423
				CHANNELS 3 Zrotation Xrotation Yrotation
				JOINT LeftToeBase
				{
					OFFSET	 0.000000	 0.000000	 0.207117
					CHANNELS 3 Zrotation Xrotation Yrotation
					End Site
					{
						OFFSET	 0.000000	 0.000000	 0.207117
					}
				}
			}
		}
	}
	JOINT RightUpLeg
	{
		OFFSET	-0.124023	-0.008373	-0.065224
		CHANNELS 3 Zrotation Xrotation Yrotation
		JOINT RightLeg
		{
			OFFSET	 0.000000	 0.000000	 0.570047
			CHANNELS 3 Zrotation Xrotation Yrotation
			JOINT RightFoot
			{
				OFFSET	 0.000000	 0.000000	 0.544354
				CHANNELS 3 Zrotation Xrotation Yrotation
				JOINT RightToeBase
				{
					OFFSET	 0.000000	 0.000000	 0.207540
					CHANNELS 3 Zrotation Xrotation Yrotation
					End Site
					{
						OFFSET	 0.000000	 0.000000	 0.207540
					}
				}
			}
		}
	}
	JOINT Spine
	{
		OFFSET	 0.000184	-0.007763	 0.117403
		CHANNELS 3 Zrotation Xrotation Yrotation
		JOINT Spine1
		{
			OFFSET	 0.000000	 0.000000	 0.137269
			CHANNELS 3 Zrotation Xrotation Yrotation
			JOINT Spine2
			{
				OFFSET	 0.000000	 0.000000	 0.156879
				CHANNELS 3 Zrotation Xrotation Yrotation
				JOINT LeftShoulder
				{
					OFFSET	 0.080501	-0.002496	 0.160144
					CHANNELS 3 Zrotation Xrotation Yrotation
					JOINT LeftArm
					{
						OFFSET	 0.000000	 0.000000	 0.164363
						CHANNELS 3 Zrotation Xrotation Yrotation
						JOINT LeftForeArm
						{
							OFFSET	 0.000000	 0.000000	 0.364576
							CHANNELS 3 Zrotation Xrotation Yrotation
							JOINT LeftHand
							{
								OFFSET	 0.000000	 0.000000	 0.360812
								CHANNELS 3 Zrotation Xrotation Yrotation
								JOINT LeftHandIndex1
								{
									OFFSET	 0.000000	 0.000000	 0.086006
									CHANNELS 3 Zrotation Xrotation Yrotation
									JOINT LeftHandIndex2
									{
										OFFSET	 0.000000	 0.000000	 0.047237
										CHANNELS 3 Zrotation Xrotation Yrotation
										JOINT LeftHandIndex3
										{
											OFFSET	-0.004284	-0.000551	 0.038165
											CHANNELS 3 Zrotation Xrotation Yrotation
											End Site
											{
												OFFSET	-0.004284	-0.000551	 0.038165
											}
										}
									}
								}
							}
						}
					}
				}
				JOINT Neck
				{
					OFFSET	 0.000000	 0.000000	 0.176489
					CHANNELS 3 Zrotation Xrotation Yrotation
					JOINT Head
					{
						OFFSET	 0.000000	-0.001747	 0.077940
						CHANNELS 3 Zrotation Xrotation Yrotation
						End Site
						{
							OFFSET	 0.000000	-0.001747	 0.077940
						}
					}
				}
				JOINT RightShoulder
				{
					OFFSET	-0.080363	 0.000306	 0.159706
					CHANNELS 3 Zrotation Xrotation Yrotation
					JOINT RightArm
					{
						OFFSET	 0.000000	 0.000000	 0.164196
						CHANNELS 3 Zrotation Xrotation Yrotation
						JOINT RightForeArm
						{
							OFFSET	 0.000000	 0.000000	 0.365611
							CHANNELS 3 Zrotation Xrotation Yrotation
							JOINT RightHand
							{
								OFFSET	 0.000000	 0.000000	 0.360648
								CHANNELS 3 Zrotation Xrotation Yrotation
								JOINT RightHandIndex1
								{
									OFFSET	 0.000000	 0.000000	 0.069977
									CHANNELS 3 Zrotation Xrotation Yrotation
									JOINT RightHandIndex2
									{
										OFFSET	 0.000000	 0.000000	 0.052305
										CHANNELS 3 Zrotation Xrotation Yrotation
										JOINT RightHandIndex3
										{
											OFFSET	 0.009002	-0.000782	 0.042196
											CHANNELS 3 Zrotation Xrotation Yrotation
											End Site
											{
												OFFSET	 0.009002	-0.000782	 0.042196
											}
										}
									}
								}
							}
						}
					}
				}
			}
		}
	}
}
MOTION
Frames:    11
Frame Time: 0.03333334
-0.643377	-0.134744	 1.248913	-160.654600	 4.089215	 8.227882	 16.541060	-12.476360	 163.942000	-9.128916	-31.054050	-3.716364	-75.288580	 76.988270	 72.798900	-2.385833	 28.452760	 0.000004	-3.640695	-47.151870	 175.545300	-29.687210	-57.745940	-16.049500	 21.861000	 31.330050	-34.155510	 2.384659	 28.388700	-0.000001	 72.325070	-12.661290	-16.047250	 46.796010	 24.242250	-3.310544	-13.441910	-3.676718	 3.471464	-91.776140	 78.527400	 180.000000	 8.605032	 27.968780	-53.857090	 35.554760	-6.319744	-7.006552	 8.142722	 3.878149	-4.131307	-4.131196	 21.524690	 0.986298	-5.167839	 0.733520	 3.519257	-1.378229	 35.397820	-2.634230	-14.147990	 16.459320	-7.394413	-27.589210	 3.125760	 5.597102	 89.782100	 78.203870	 180.000000	 6.714177	 58.093220	 1.076309	-45.841900	-6.386235	 6.975901	 108.757900	-26.704040	-11.466010	 5.715225	 19.176060	-3.692089	 5.027514	 0.245388	-9.378011	-2.350882	 35.473990	 5.254307
-0.642771	-0.133725	 1.249472	-161.117100	 4.365363	 8.986119	 16.851490	-13.062700	 163.199200	-8.857754	-31.205220	-3.590561	-77.145710	 77.980770	 74.117860	-2.385833	 28.452760	 0.000004	-1.486522	-47.239140	 175.408700	-25.215880	-58.024870	-12.214300	 34.116940	 41.581420	-39.387850	 2.384659	 28.388700	-0.000001	 72.115820	-14.594380	-17.238560	 47.094600	 26.074700	-3.836441	-13.399160	-3.849368	 3.292203	-91.776180	 78.527380	-180.000000	 8.535384	 27.920920	-53.989940	 36.034600	-6.322662	-7.003126	 8.863285	 4.354659	-4.364652	-4.131196	 21.524690	 0.986298	-5.167839	 0.733520	 3.519257	-1.378229	 35.397820	-2.634230	-13.983040	 16.346770	-7.872531	-27.692190	 2.909229	 5.459809	 89.782160	 78.288910	 179.994000	 6.670751	 58.163770	 1.344357	-46.565460	-6.392504	 6.972028	 107.966500	-26.093170	-11.285440	 5.715225	 19.176060	-3.692089	 5.027514	 0.245388	-9.378011	-2.350882	 35.473990	 5.254307
-0.641361	-0.131833	 1.250251	-161.877500	 4.440539	 9.082799	 18.793450	-13.294400	 163.054600	-8.288437	-30.851320	-3.259127	-90.489220	 79.348480	 86.512060	-2.385833	 28.452760	 0.000004	-2.813174	-47.176920	 174.820200	-20.616890	-58.030630	-8.264995	 42.465330	 48.216350	-43.357650	 2.384659	 28.388700	-0.000001	 72.347120	-16.100300	-18.158370	 47.292040	 28.560790	-4.521956	-13.332240	-4.687239	 3.449455	-91.776150	 78.527400	 180.000000	 8.226631	 27.970640	-53.925530	 36.831000	-6.331759	-6.999599	 9.430823	 4.660410	-4.597175	-4.131196	 21.524690	 0.986298	-5.167839	 0.733520	 3.519257	-1.378229	 35.397820	-2.634230	-14.018690	 16.338220	-7.701948	-27.665510	 2.767971	 5.073663	 89.782190	 78.299710	 179.992800	 5.950749	 58.484060	 2.132089	-47.964110	-6.402025	 6.962442	 107.145700	-24.303250	-9.782600	 5.715225	 19.176060	-3.692089	 5.027514	 0.245388	-9.378011	-2.350882	 35.473990	 5.254307
-0.638065	-0.129554	 1.250242	-163.203200	 5.121592	 9.153497	 20.824170	-14.052880	 163.153100	-6.930027	-30.605410	-2.539110	-108.190300	 80.201720	 102.534500	-2.385833	 28.452760	 0.000004	-3.086192	-47.699840	 174.575100	-18.280770	-57.422040	-6.229187	 46.005650	 51.717160	-44.386510	 2.384659	 28.388700	-0.000001	 73.715550	-15.957770	-18.066960	 46.919370	 28.146780	-2.541420	-13.333890	-4.184412	 2.677270	-91.776260	 78.527420	-179.999900	 8.459797	 27.519020	-54.074090	 37.627220	-6.345831	-6.997607	 9.974811	 4.977445	-4.837545	-4.131196	 21.524690	 0.986298	-5.167839	 0.733520	 3.519257	-1.378229	 35.397820	-2.634230	-13.924490	 16.806530	-7.773292	-27.566350	 2.544520	 5.214897	 89.782110	 78.304990	 179.992200	 4.478039	 58.818320	 3.463234	-49.426280	-6.417343	 6.953870	 104.622200	-25.092650	-9.086295	 5.715225	 19.176060	-3.692089	 5.027514	 0.245388	-9.378011	-2.350882	 35.473990	 5.254307
-0.632815	-0.123754	 1.250272	-163.242200	 5.517376	 6.869036	 22.041880	-12.516700	 165.341800	-4.927322	-28.801700	-1.434385	-158.638700	 78.906090	 150.341100	-2.385833	 28.452760	 0.000004	 3.175412	-47.381500	-179.864300	-17.744850	-57.048270	-5.751521	 58.148880	 53.411970	-54.957070	 2.384659	 28.388700	-0.000001	 74.138050	-16.481240	-15.356370	 47.126060	 30.406100	-4.772663	-12.967730	-6.151371	 2.799916	-91.776160	 78.527380	 180.000000	 8.425734	 27.707600	-54.012880	 38.320760	-6.367966	-6.997940	 10.537840	 5.356258	-5.106679	-4.131196	 21.524690	 0.986298	-5.167839	 0.733520	 3.519257	-1.378229	 35.397820	-2.634230	-13.514410	 17.161780	-8.121388	-27.453830	 2.771109	 6.768130	 89.782190	 78.311200	 179.991900	 1.702304	 58.928860	 6.030135	-50.522820	-6.437841	 6.949008	 103.128400	-24.194560	-6.839067	 5.715225	 19.176060	-3.692089	 5.027514	 0.245388	-9.378011	-2.350882	 35.473990	 5.254307
-0.627389	-0.119310	 1.249752	-163.261900	 4.883775	 5.840427	 21.479390	-10.342540	 165.840000	-3.756283	-27.409920	-0.830804	-162.684300	 77.995660	 153.307100	-2.385833	 28.452760	 0.000004	 5.811988	-45.839950	-177.540800	-17.289670	-56.511260	-5.335420	 60.513670	 54.447440	-56.250100	 2.384659	 28.388700	-0.000001	 74.772430	-14.235010	-13.780840	 46.703900	 28.713550	-5.251108	-12.655600	-6.312049	 3.688807	-91.776170	 78.527420	-180.000000	 9.073032	 26.947360	-54.246620	 38.650220	-6.384105	-6.998809	 10.837760	 5.585179	-5.264685	-4.131196	 21.524690	 0.986298	-5.167839	 0.733520	 3.519257	-1.378229	 35.397820	-2.634230	-13.135600	 17.110270	-8.652714	-27.468660	 3.065975	 8.122265	 89.782140	 78.309880	 179.992700	-0.964742	 59.046870	 8.293674	-50.471240	-6.453231	 6.952748	 102.154600	-27.379690	-4.362933	 5.715225	 19.176060	-3.692089	 5.027514	 0.245388	-9.378011	-2.350882	 35.473990	 5.254307
-0.620103	-0.113629	 1.249319	-163.437100	 4.304307	 6.135647	 22.344520	-9.174041	 164.772500	-4.987276	-26.245120	-1.343218	-147.308800	 80.356740	 139.048300	-2.385833	 28.452760	 0.000004	 6.569829	-44.186300	-177.597300	-16.925320	-55.565550	-4.975110	 60.923050	 55.637470	-55.705720	 2.384659	 28.388700	-0.000001	 75.100890	-12.495210	-13.694680	 46.445160	 26.576350	-5.085744	-12.476680	-5.644711	 4.437099	-91.776230	 78.527420	-180.000000	 9.859940	 25.987030	-54.657550	 38.876350	-6.403576	-7.001315	 11.010010	 5.768500	-5.391851	-4.131196	 21.524690	 0.986298	-5.167839	 0.733520	 3.519257	-1.378229	 35.397820	-2.634230	-12.828400	 17.111600	-9.176653	-27.518690	 3.070666	 9.021588	 89.782130	 78.307540	 179.993300	-3.462779	 59.044950	 10.524850	-49.242210	-6.468083	 6.966150	 102.395900	-32.647640	-1.303487	 5.715225	 19.176060	-3.692089	 5.027514	 0.245388	-9.378011	-2.350882	 35.473990	 5.254307
-0.609208	-0.104141	 1.249202	-163.132300	 4.645516	 7.579384	 26.531540	-10.369340	 162.355300	-8.227674	-24.955410	-2.656481	-77.770370	 85.248200	 72.279260	-2.385833	 28.452760	 0.000004	 7.243764	-42.867140	-178.851000	-16.947450	-54.182540	-4.909805	 66.023140	 56.353160	-59.833640	 2.384659	 28.388700	-0.000001	 74.174170	-14.156400	-15.128460	 46.918450	 27.483660	-5.737232	-12.427720	-5.517391	 4.389303	-91.776150	 78.527400	 180.000000	 10.285470	 25.729140	-55.056290	 38.989570	-6.430449	-7.006577	 10.946540	 5.900879	-5.489784	-4.131196	 21.524690	 0.986298	-5.167839	 0.733520	 3.519257	-1.378229	 35.397820	-2.634230	-12.685040	 17.367670	-9.300032	-27.507650	 2.619397	 9.259358	 89.782090	 78.306580	 179.993000	-4.744068	 58.781330	 12.034160	-46.970740	-6.485328	 6.988247	 105.279200	-37.485690	 3.281470	 5.715225	 19.176060	-3.692089	 5.027514	 0.245388	-9.378011	-2.350882	 35.473990	 5.254307
-0.596600	-0.093671	 1.248626	-162.298500	 4.921108	 8.816322	 29.681120	-11.229330	 160.159600	-8.981118	-23.322860	-2.794693	-18.197530	 75.951850	 13.678220	-2.385833	 28.452760	 0.000004	 7.239795	-41.359620	 179.778000	-16.934430	-52.862050	-4.816780	 68.662480	 57.794950	-61.453250	 2.384659	 28.388700	-0.000001	 73.109700	-14.606520	-15.911840	 47.203730	 26.790510	-6.157159	-12.475180	-5.031329	 4.555759	-91.776120	 78.527400	 180.000000	 11.113570	 25.089680	-55.538130	 38.817290	-6.457070	-7.012688	 10.374570	 5.831516	-5.462264	-4.131196	 21.524690	 0.986298	-5.167839	 0.733520	 3.519257	-1.378229	 35.397820	-2.634230	-12.873680	 17.613590	-8.639946	-27.323070	 2.337909	 8.977380	 89.782100	 78.300140	 179.993800	-5.179600	 58.520540	 12.771440	-45.964990	-6.512225	 7.002855	 107.843300	-41.881780	 6.953134	 5.715225	 19.176060	-3.692089	 5.027514	 0.245388	-9.378011	-2.350882	 35.473990	 5.254307
-0.583103	-0.082156	 1.247919	-161.086200	 4.731074	 8.692983	 31.837850	-10.115540	 159.129200	-8.428760	-20.659230	-2.293594	-12.371740	 64.162810	 8.684672	-2.385833	 28.452760	 0.000004	 7.578460	-39.296350	 179.794700	-17.112440	-51.884120	-4.894739	 70.055280	 58.967560	-61.982540	 2.384659	 28.388700	-0.000001	 72.393470	-13.444080	-15.377570	 47.206340	 25.655930	-6.947504	-12.638910	-5.109538	 5.230425	-91.776180	 78.527420	 180.000000	 12.142740	 24.102620	-55.948050	 38.262770	-6.485913	-7.022386	 9.322228	 5.527233	-5.279011	-4.131196	 21.524690	 0.986298	-5.167839	 0.733520	 3.519257	-1.378229	 35.397820	-2.634230	-13.473870	 17.687300	-7.408434	-27.151250	 2.383322	 8.146447	 89.782160	 78.293270	 179.994800	-5.208164	 58.423420	 13.208850	-45.763640	-6.545260	 7.012237	 110.114600	-46.021220	 9.207828	 5.715225	 19.176060	-3.692089	 5.027514	 0.245388	-9.378011	-2.350882	 35.473990	 5.254307
-0.568969	-0.069230	 1.247646	-160.354100	 4.449345	 7.355962	 32.921180	-6.998334	 159.417000	-6.789141	-17.077500	-1.423561	-11.640410	 53.777390	 8.435240	-2.385833	 28.452760	 0.000004	 8.032539	-37.334660	-179.082200	-16.929230	-51.178790	-4.703990	 72.296680	 58.778690	-64.015090	 2.384659	 28.388700	-0.000001	 72.400360	-12.717520	-14.282300	 47.260700	 26.506440	-8.666929	-13.112900	-6.270898	 6.208811	-91.776160	 78.527420	 180.000000	 12.690940	 23.371900	-56.052550	 37.711760	-6.519261	-7.033429	 8.962962	 5.370259	-5.132383	-4.131196	 21.524690	 0.986298	-5.167839	 0.733520	 3.519257	-1.378229	 35.397820	-2.634230	-14.291270	 17.777680	-7.143361	-27.644960	 2.045079	 7.111290	 89.782150	 78.294650	 179.994900	-3.639688	 58.800910	 12.632680	-45.965700	-6.580301	 7.017374	 112.118200	-48.527640	 9.294835	 5.715225	 19.176060	-3.692089	 5.027514	 0.245388	-9.378011	-2.350882	 35.473990	 5.254307
